<svg width="433" height="109" viewBox="0 0 433 109" fill="none" xmlns="http://www.w3.org/2000/svg">
<rect width="432.293" height="107.798" fill="#242424"/>
<g filter="url(#filter0_b_1113_5721)">
<path d="M10.7223 78.4057C10.7284 78.1926 10.771 77.9978 10.8501 77.8213C10.9292 77.6448 11.051 77.4743 11.2153 77.31L20.3643 68.4532C20.6261 68.1914 20.9487 68.0606 21.3322 68.0606C21.5878 68.0606 21.8192 68.1214 22.0261 68.2432C22.2392 68.3649 22.4066 68.5293 22.5283 68.7362C22.6561 68.9432 22.72 69.1745 22.72 69.4302C22.72 69.8076 22.577 70.1393 22.2909 70.4254L14.0185 78.3965L22.2909 86.3768C22.577 86.669 22.72 87.0007 22.72 87.372C22.72 87.6338 22.6561 87.8681 22.5283 88.0751C22.4066 88.2821 22.2392 88.4464 22.0261 88.5682C21.8192 88.696 21.5878 88.7599 21.3322 88.7599C20.9487 88.7599 20.6261 88.626 20.3643 88.3582L11.2153 79.5014C11.0449 79.337 10.9201 79.1666 10.841 78.99C10.7619 78.8074 10.7223 78.6126 10.7223 78.4057Z" fill="#F8F9F9"/>
</g>
<path d="M64.2414 89.302C64.0169 88.9754 63.9285 88.6931 63.9761 88.455C64.0237 88.2168 64.1496 88.0297 64.3537 87.8937C64.5102 87.7848 64.6769 87.7202 64.8537 87.6998C65.0374 87.6862 65.2279 87.676 65.4252 87.6692C65.6293 87.6624 65.8504 87.6284 66.0885 87.5671C66.3266 87.5059 66.5818 87.3766 66.8539 87.1793C67.1873 86.9412 67.4118 86.6453 67.5274 86.2915C67.6499 85.9309 67.7553 85.5397 67.8438 85.1179C67.939 84.6893 68.0955 84.2607 68.3132 83.8321C68.5377 83.3967 68.9221 82.9885 69.4664 82.6075C70.0855 82.1653 70.7828 81.9374 71.5584 81.9238C72.3339 81.9034 73.0925 82.0837 73.8341 82.4647C74.5756 82.8456 75.2083 83.4103 75.7322 84.1587C76.3173 84.9955 76.6438 85.8493 76.7119 86.7201C76.7867 87.5909 76.6166 88.4243 76.2016 89.2203C75.7866 90.0231 75.1369 90.7306 74.2525 91.3429C73.4905 91.8736 72.6435 92.2104 71.7114 92.3532C70.7862 92.5029 69.8541 92.4791 68.9153 92.2818C67.9764 92.0845 67.0988 91.7307 66.2824 91.2205C65.466 90.717 64.7857 90.0775 64.2414 89.302ZM76.1608 82.3524C75.6778 81.8694 75.1437 81.4714 74.5586 81.1584C73.9803 80.8387 73.4293 80.638 72.9054 80.5563C72.9939 80.0529 73.1673 79.5835 73.4259 79.1481C73.6844 78.7059 74.0382 78.2602 74.4872 77.8112C74.5484 77.75 74.6096 77.6888 74.6709 77.6275C74.7321 77.5663 74.7967 77.5085 74.8648 77.454C75.6267 77.5901 76.3513 77.8418 77.0384 78.2092C77.7255 78.5766 78.3446 79.0358 78.8957 79.5869C79.4468 80.1311 79.9094 80.7502 80.2836 81.4442C80.6578 82.1313 80.9163 82.8695 81.0592 83.6586C80.9979 83.7267 80.9367 83.7913 80.8755 83.8525C80.821 83.907 80.7632 83.9648 80.702 84.026C80.2598 84.475 79.821 84.8288 79.3855 85.0873C78.9501 85.339 78.4807 85.5159 77.9773 85.618C77.8888 85.0805 77.6813 84.5227 77.3548 83.9444C77.035 83.3593 76.637 82.8286 76.1608 82.3524ZM88.7128 66.7083C89.121 66.4157 89.5326 66.2661 89.9476 66.2592C90.3626 66.2524 90.7436 66.3545 91.0906 66.5654C91.4444 66.7695 91.7233 67.045 91.9274 67.392C92.1383 67.739 92.2437 68.1233 92.2437 68.5452C92.2437 68.967 92.0975 69.3854 91.8049 69.8004C91.7165 69.9228 91.509 70.2188 91.1824 70.6882C90.8559 71.1508 90.4375 71.7393 89.9272 72.4536C89.4238 73.1612 88.8557 73.947 88.223 74.811C87.5903 75.6682 86.9236 76.556 86.2228 77.4745C85.5221 78.3861 84.8146 79.2807 84.1002 80.1584C83.3927 81.036 82.7089 81.8456 82.049 82.5871C81.7565 81.587 81.3143 80.6788 80.7224 79.8624C80.1373 79.046 79.4366 78.3487 78.6202 77.7704C77.8038 77.1921 76.9092 76.7567 75.9363 76.4642C76.671 75.8043 77.4772 75.1205 78.3548 74.413C79.2393 73.6986 80.1373 72.9911 81.0489 72.2904C81.9674 71.5896 82.8552 70.9229 83.7124 70.2902C84.5764 69.6575 85.3622 69.0894 86.0698 68.586C86.7841 68.0757 87.3726 67.6573 87.8352 67.3308C88.3046 67.0042 88.5972 66.7967 88.7128 66.7083Z" fill="#189AF9"/>
<path d="M118.616 79.2297C118.616 77.8622 118.888 76.59 119.432 75.4131C119.983 74.2293 120.738 73.1612 121.697 72.2087C122.664 71.2563 123.769 70.4433 125.014 69.7697C126.266 69.0962 127.599 68.5792 129.014 68.2186C130.43 67.8512 131.858 67.6675 133.3 67.6675C134.94 67.6675 136.488 67.9227 137.944 68.4329C139.4 68.9363 140.685 69.6507 141.801 70.5759C142.917 71.5012 143.791 72.6033 144.424 73.8823C145.057 75.1545 145.373 76.5628 145.373 78.1072C145.373 79.2705 145.152 80.3863 144.71 81.4544C144.274 82.5157 143.669 83.492 142.893 84.3832C142.118 85.2744 141.226 86.05 140.219 86.7099C139.213 87.3698 138.138 87.8801 136.995 88.2406C135.859 88.608 134.705 88.7917 133.535 88.7917C132.855 88.7917 132.256 88.6795 131.739 88.455C131.222 88.2304 130.817 87.9141 130.525 87.5059C130.239 87.1045 130.096 86.6249 130.096 86.067C130.096 85.5159 130.229 85.0125 130.494 84.5567C130.766 84.1009 131.137 83.7097 131.606 83.3831C132.076 83.0497 132.62 82.7946 133.239 82.6177C133.858 82.434 134.522 82.3422 135.229 82.3422C136.338 82.3422 137.338 82.5939 138.229 83.0974C139.121 83.594 139.825 84.2709 140.342 85.1281C140.866 85.9854 141.128 86.9548 141.128 88.0366C141.128 88.7917 140.992 89.5265 140.719 90.2408C140.454 90.9552 140.07 91.6151 139.566 92.2206C139.07 92.8261 138.481 93.3397 137.801 93.7615C137.692 93.8295 137.59 93.8806 137.495 93.9146C137.406 93.9486 137.304 93.9656 137.189 93.9656C136.916 93.9656 136.702 93.8874 136.546 93.7309C136.396 93.5744 136.321 93.3941 136.321 93.19C136.321 92.9859 136.372 92.8159 136.474 92.6798C136.583 92.5505 136.719 92.4315 136.882 92.3226C137.678 91.8464 138.301 91.2273 138.75 90.4653C139.206 89.7102 139.434 88.9176 139.434 88.0876C139.434 87.312 139.253 86.6215 138.893 86.016C138.539 85.4037 138.053 84.924 137.433 84.5771C136.821 84.2301 136.127 84.0566 135.352 84.0566C134.889 84.0566 134.447 84.1043 134.025 84.1995C133.603 84.2947 133.226 84.4274 132.892 84.5975C132.559 84.7676 132.294 84.9751 132.096 85.22C131.906 85.4581 131.811 85.7234 131.811 86.016C131.811 86.3629 131.974 86.6283 132.3 86.812C132.634 87.0025 133.045 87.0977 133.535 87.0977C134.522 87.0977 135.501 86.9412 136.474 86.6283C137.447 86.3153 138.366 85.8799 139.23 85.322C140.094 84.7642 140.859 84.1111 141.526 83.3627C142.192 82.6075 142.716 81.7843 143.097 80.8931C143.485 80.0019 143.679 79.0766 143.679 78.1174C143.679 76.7975 143.403 75.6036 142.852 74.5354C142.301 73.4605 141.546 72.5387 140.587 71.7699C139.628 71.0011 138.522 70.4127 137.27 70.0045C136.025 69.5895 134.705 69.382 133.311 69.382C132.038 69.382 130.776 69.5384 129.525 69.8514C128.28 70.1575 127.103 70.6031 125.994 71.1882C124.885 71.7665 123.905 72.4604 123.055 73.27C122.204 74.0796 121.534 74.9879 121.044 75.9947C120.561 77.0016 120.32 78.0834 120.32 79.2399C120.32 80.4985 120.575 81.6006 121.085 82.5463C121.595 83.4852 122.3 84.2675 123.198 84.8934C124.102 85.5125 125.147 85.9786 126.331 86.2915C127.514 86.5977 128.776 86.7507 130.117 86.7507C130.341 86.7507 130.566 86.7439 130.79 86.7303C131.021 86.7235 131.246 86.7133 131.464 86.6997L131.872 88.3529C131.566 88.3801 131.26 88.4005 130.953 88.4141C130.654 88.4277 130.351 88.4345 130.045 88.4345C128.46 88.4345 126.977 88.2338 125.596 87.8325C124.215 87.4379 123 86.8494 121.953 86.067C120.905 85.2846 120.085 84.322 119.493 83.179C118.908 82.0361 118.616 80.7196 118.616 79.2297Z" fill="#F8F9F9"/>
<path d="M246.585 83.2913L248.34 82.1483L251.718 84.1179C252.181 84.39 252.514 84.6485 252.718 84.8934C252.929 85.1315 253.035 85.4173 253.035 85.7506C253.035 86.0772 252.929 86.3595 252.718 86.5977C252.514 86.8426 252.181 87.1045 251.718 87.3834L241.279 93.4247C240.993 93.588 240.731 93.7105 240.493 93.7921C240.262 93.8738 240.027 93.9146 239.789 93.9146C239.551 93.9146 239.313 93.8738 239.074 93.7921C238.843 93.7105 238.585 93.588 238.299 93.4247L227.869 87.3834C227.4 87.1045 227.063 86.8426 226.859 86.5977C226.655 86.3595 226.553 86.0772 226.553 85.7506C226.553 85.4173 226.655 85.1315 226.859 84.8934C227.063 84.6485 227.4 84.39 227.869 84.1179L231.38 82.0769L233.268 83.1382L229.012 85.567C228.978 85.5874 228.948 85.6112 228.92 85.6384C228.893 85.6656 228.88 85.703 228.88 85.7506C228.88 85.7915 228.893 85.8255 228.92 85.8527C228.948 85.8799 228.978 85.9037 229.012 85.9241L239.248 91.7818C239.35 91.843 239.442 91.8872 239.523 91.9144C239.612 91.9484 239.7 91.9654 239.789 91.9654C239.877 91.9654 239.962 91.9484 240.044 91.9144C240.132 91.8872 240.228 91.843 240.33 91.7818L250.565 85.9241C250.606 85.9037 250.637 85.8799 250.657 85.8527C250.684 85.8255 250.698 85.7915 250.698 85.7506C250.698 85.703 250.684 85.6656 250.657 85.6384C250.637 85.6112 250.606 85.5874 250.565 85.567L246.585 83.2913ZM246.289 76.9642L248.034 75.8213L251.718 77.9541C252.181 78.2262 252.514 78.4847 252.718 78.7297C252.929 78.9746 253.035 79.2603 253.035 79.5869C253.035 79.9202 252.929 80.2094 252.718 80.4543C252.514 80.6924 252.181 80.9475 251.718 81.2197L241.279 87.2712C240.993 87.4345 240.731 87.5569 240.493 87.6386C240.262 87.7202 240.027 87.761 239.789 87.761C239.551 87.761 239.313 87.7202 239.074 87.6386C238.843 87.5569 238.585 87.4345 238.299 87.2712L227.869 81.2197C227.4 80.9475 227.063 80.6924 226.859 80.4543C226.655 80.2094 226.553 79.9202 226.553 79.5869C226.553 79.2603 226.655 78.9746 226.859 78.7297C227.063 78.4847 227.4 78.2262 227.869 77.9541L231.757 75.709L233.554 76.8111L229.012 79.4134C228.978 79.4338 228.948 79.4576 228.92 79.4848C228.893 79.512 228.88 79.5461 228.88 79.5869C228.88 79.6277 228.893 79.6617 228.92 79.6889C228.948 79.7161 228.978 79.7434 229.012 79.7706L239.248 85.6282C239.35 85.6826 239.442 85.7268 239.523 85.7609C239.612 85.7881 239.7 85.8017 239.789 85.8017C239.877 85.8017 239.962 85.7881 240.044 85.7609C240.132 85.7268 240.228 85.6826 240.33 85.6282L250.565 79.7706C250.606 79.7434 250.637 79.7161 250.657 79.6889C250.684 79.6617 250.698 79.6277 250.698 79.5869C250.698 79.5461 250.684 79.512 250.657 79.4848C250.637 79.4576 250.606 79.4338 250.565 79.4134L246.289 76.9642ZM239.789 81.2299C239.551 81.2299 239.313 81.189 239.074 81.1074C238.843 81.0258 238.585 80.9033 238.299 80.74L227.869 74.6885C227.4 74.4164 227.063 74.1613 226.859 73.9231C226.655 73.6782 226.553 73.3891 226.553 73.0557C226.553 72.7292 226.655 72.4434 226.859 72.1985C227.063 71.9536 227.4 71.6951 227.869 71.4229L238.299 65.3816C238.585 65.2115 238.843 65.0891 239.074 65.0142C239.313 64.9326 239.551 64.8918 239.789 64.8918C240.027 64.8918 240.262 64.9326 240.493 65.0142C240.731 65.0891 240.993 65.2115 241.279 65.3816L251.718 71.4229C252.181 71.6951 252.514 71.9536 252.718 72.1985C252.929 72.4434 253.035 72.7292 253.035 73.0557C253.035 73.3891 252.929 73.6782 252.718 73.9231C252.514 74.1613 252.181 74.4164 251.718 74.6885L241.279 80.74C240.993 80.9033 240.731 81.0258 240.493 81.1074C240.262 81.189 240.027 81.2299 239.789 81.2299Z" fill="#F8F9F9"/>
<path d="M294.453 71.6168C294.697 71.6168 294.905 71.7053 295.075 71.8822C295.252 72.0522 295.34 72.2597 295.34 72.5047V81.2299L294.35 78.1888L298.596 83.8729C298.759 84.0975 298.83 84.3288 298.81 84.5669C298.796 84.7982 298.684 84.9887 298.473 85.1384C298.249 85.2948 298.014 85.3561 297.769 85.322C297.531 85.2812 297.32 85.1418 297.136 84.9036L293.84 80.5563C293.738 80.4271 293.663 80.3012 293.616 80.1788C293.575 80.0563 293.555 79.9236 293.555 79.7808V72.5047C293.555 72.2597 293.64 72.0522 293.81 71.8822C293.987 71.7053 294.201 71.6168 294.453 71.6168ZM294.963 92.5165C293.466 92.5165 292.041 92.2716 290.687 91.7818C289.34 91.2919 288.102 90.6116 286.972 89.7408C285.85 88.87 284.877 87.8631 284.054 86.7201C283.863 86.4752 283.792 86.2201 283.839 85.9547C283.894 85.6826 284.033 85.4785 284.258 85.3425C284.489 85.1996 284.727 85.1622 284.972 85.2302C285.217 85.2914 285.425 85.4343 285.595 85.6588C286.275 86.6521 287.095 87.5195 288.054 88.2611C289.02 89.0026 290.085 89.5775 291.248 89.9857C292.418 90.4007 293.657 90.6116 294.963 90.6184C296.221 90.6184 297.419 90.4279 298.555 90.0469C299.698 89.6659 300.742 89.1285 301.688 88.4345C302.64 87.7406 303.463 86.9174 304.157 85.965C304.858 85.0125 305.399 83.9682 305.78 82.832C306.161 81.6891 306.351 80.4883 306.351 79.2297C306.351 77.9643 306.161 76.7635 305.78 75.6274C305.399 74.4844 304.858 73.4401 304.157 72.4945C303.463 71.5488 302.64 70.729 301.688 70.0351C300.742 69.3411 299.698 68.8037 298.555 68.4227C297.419 68.0417 296.221 67.8512 294.963 67.8512C293.697 67.8512 292.493 68.0417 291.35 68.4227C290.214 68.8037 289.173 69.3411 288.228 70.0351C287.282 70.7222 286.459 71.542 285.758 72.4945C285.064 73.4401 284.527 74.481 284.146 75.6172C283.765 76.7533 283.574 77.9541 283.574 79.2195H281.676C281.676 77.7636 281.9 76.3757 282.35 75.0559C282.799 73.7293 283.431 72.5115 284.248 71.4025C285.071 70.2936 286.037 69.3309 287.146 68.5145C288.255 67.6981 289.469 67.0654 290.789 66.6164C292.116 66.1606 293.507 65.9327 294.963 65.9327C296.419 65.9327 297.807 66.1606 299.126 66.6164C300.453 67.0654 301.671 67.7015 302.78 68.5247C303.889 69.3411 304.851 70.3038 305.668 71.4127C306.491 72.5217 307.127 73.7395 307.576 75.0661C308.025 76.3859 308.25 77.7738 308.25 79.2297C308.25 80.6788 308.025 82.0667 307.576 83.3933C307.127 84.72 306.491 85.9377 305.668 87.0467C304.851 88.1556 303.889 89.1183 302.78 89.9347C301.671 90.7511 300.453 91.3838 299.126 91.8328C297.807 92.2886 296.419 92.5165 294.963 92.5165ZM279.972 76.7601H285.911C286.183 76.7601 286.391 76.8179 286.534 76.9336C286.676 77.0493 286.744 77.1989 286.738 77.3826C286.738 77.5663 286.659 77.767 286.503 77.9847L283.605 82.1177C283.414 82.3898 283.193 82.5293 282.941 82.5361C282.69 82.5361 282.469 82.3966 282.278 82.1177L279.38 77.9949C279.223 77.7772 279.142 77.5765 279.135 77.3928C279.128 77.2023 279.196 77.0493 279.339 76.9336C279.482 76.8179 279.693 76.7601 279.972 76.7601Z" fill="#F8F9F9"/>
<rect x="387.191" y="63.7969" width="30.7995" height="30.7995" rx="8.79986" fill="#707375"/>
<path d="M403.691 73.6973H411.391C411.999 73.6973 412.491 74.1897 412.491 74.7972V83.5971C412.491 84.2046 411.999 84.6971 411.391 84.6971H403.691" stroke="#F8F9F9" stroke-width="1.53998" stroke-linejoin="round"/>
<path d="M400.391 73.6973H393.791C393.184 73.6973 392.691 74.1897 392.691 74.7973V79.1972V83.5971C392.691 84.2046 393.184 84.6971 393.791 84.6971H400.391" stroke="#F8F9F9" stroke-width="1.53998" stroke-linejoin="round"/>
<path d="M403.691 69.2969V89.0966" stroke="#F8F9F9" stroke-width="1.64997" stroke-linecap="square"/>
<circle cx="348.144" cy="78.6482" r="13.1998" fill="black" stroke="#F8F9F9" stroke-width="1.09998"/>
<defs>
<filter id="filter0_b_1113_5721" x="-54.9991" y="-54.9991" width="542.291" height="217.797" filterUnits="userSpaceOnUse" color-interpolation-filters="sRGB">
<feFlood flood-opacity="0" result="BackgroundImageFix"/>
<feGaussianBlur in="BackgroundImageFix" stdDeviation="27.4996"/>
<feComposite in2="SourceAlpha" operator="in" result="effect1_backgroundBlur_1113_5721"/>
<feBlend mode="normal" in="SourceGraphic" in2="effect1_backgroundBlur_1113_5721" result="shape"/>
</filter>
</defs>
</svg>
