<svg width="277" height="74" viewBox="0 0 277 74" fill="none" xmlns="http://www.w3.org/2000/svg">
<g filter="url(#filter0_b_1194_1295)">
<rect width="276.197" height="68.8735" fill="#1E1F1F" fill-opacity="0.8"/>
<g filter="url(#filter1_b_1194_1295)">
<path d="M39.8948 16.2606C40.346 16.2606 40.7738 16.3442 41.1783 16.5115C41.5827 16.6748 41.9405 16.9315 42.2517 17.2815C42.5667 17.6276 42.8136 18.073 42.9925 18.6174C43.1714 19.158 43.2609 19.8095 43.2609 20.5717V20.5834C43.2609 21.5285 43.1248 22.3374 42.8525 23.0102C42.5803 23.683 42.1894 24.2003 41.6799 24.562C41.1744 24.9198 40.5696 25.0987 39.8657 25.0987C39.3484 25.0987 38.8817 25.0053 38.4656 24.8187C38.0533 24.6281 37.7111 24.3675 37.4388 24.0369C37.1705 23.7025 36.9896 23.3213 36.8963 22.8935L36.8846 22.8294H38.3606L38.3839 22.8877C38.4578 23.0822 38.5628 23.2533 38.6989 23.4011C38.8389 23.5489 39.0062 23.6636 39.2006 23.7453C39.399 23.823 39.6206 23.8619 39.8657 23.8619C40.309 23.8619 40.6707 23.7317 40.9507 23.4711C41.2346 23.2066 41.4466 22.8547 41.5866 22.4152C41.7305 21.9718 41.8122 21.4818 41.8316 20.9451C41.8355 20.8867 41.8375 20.8304 41.8375 20.7759C41.8375 20.7176 41.8375 20.6612 41.8375 20.6067L41.5749 19.2008C41.5749 18.8819 41.501 18.5922 41.3533 18.3316C41.2055 18.071 41.0052 17.8649 40.7524 17.7132C40.5035 17.5615 40.2215 17.4857 39.9065 17.4857C39.6031 17.4857 39.3251 17.5596 39.0723 17.7074C38.8195 17.8552 38.6173 18.0574 38.4656 18.3141C38.3139 18.5669 38.2381 18.8508 38.2381 19.1658V19.1775C38.2381 19.5042 38.31 19.7939 38.4539 20.0467C38.5978 20.2956 38.7942 20.492 39.0431 20.6359C39.292 20.7798 39.5759 20.8517 39.8948 20.8517C40.2137 20.8517 40.4996 20.7817 40.7524 20.6417C41.0052 20.5017 41.2055 20.3073 41.3533 20.0584C41.501 19.8095 41.5749 19.5275 41.5749 19.2125V19.2008H41.925V20.7526H41.7208C41.6197 20.9743 41.4699 21.1804 41.2716 21.3709C41.0732 21.5615 40.8282 21.7151 40.5365 21.8318C40.2487 21.9485 39.9104 22.0068 39.5215 22.0068C38.9848 22.0068 38.5103 21.8863 38.098 21.6451C37.6858 21.404 37.3611 21.0734 37.1238 20.6534C36.8905 20.2334 36.7738 19.7589 36.7738 19.23V19.2183C36.7738 18.6466 36.906 18.1391 37.1705 17.6957C37.4388 17.2485 37.8083 16.8984 38.2789 16.6456C38.7534 16.389 39.292 16.2606 39.8948 16.2606ZM45.9094 23.7569C45.6449 23.7569 45.4232 23.6694 45.2443 23.4944C45.0693 23.3155 44.9818 23.0977 44.9818 22.841C44.9818 22.5805 45.0693 22.3627 45.2443 22.1877C45.4232 22.0088 45.6449 21.9193 45.9094 21.9193C46.1777 21.9193 46.3994 22.0088 46.5744 22.1877C46.7494 22.3627 46.837 22.5805 46.837 22.841C46.837 23.0977 46.7494 23.3155 46.5744 23.4944C46.3994 23.6694 46.1777 23.7569 45.9094 23.7569ZM45.9094 19.4283C45.6449 19.4283 45.4232 19.3408 45.2443 19.1658C45.0693 18.9869 44.9818 18.7691 44.9818 18.5124C44.9818 18.2519 45.0693 18.0341 45.2443 17.859C45.4232 17.6801 45.6449 17.5907 45.9094 17.5907C46.1777 17.5907 46.3994 17.6801 46.5744 17.859C46.7494 18.0341 46.837 18.2519 46.837 18.5124C46.837 18.7691 46.7494 18.9869 46.5744 19.1658C46.3994 19.3408 46.1777 19.4283 45.9094 19.4283ZM52.6415 24.8887V23.2727H48.5229V22.0418C48.7446 21.6646 48.9663 21.2854 49.1879 20.9042C49.4135 20.5231 49.641 20.1439 49.8705 19.7667C50.1038 19.3855 50.3352 19.0102 50.5647 18.6408C50.798 18.2674 51.0294 17.8999 51.2589 17.5382C51.4923 17.1726 51.7256 16.8168 51.959 16.4706H54.0766V22.0302H55.2142V23.2727H54.0766V24.8887H52.6415ZM49.923 22.0652H52.6648V17.6724H52.5773C52.4062 17.9368 52.2292 18.2091 52.0465 18.4891C51.8676 18.7691 51.6867 19.055 51.5039 19.3466C51.3211 19.6383 51.1403 19.932 50.9614 20.2275C50.7825 20.5192 50.6055 20.8129 50.4305 21.1084C50.2555 21.4001 50.0863 21.6899 49.923 21.9776V22.0652ZM58.6969 24.8887V17.9524H58.5919L56.4976 19.4283V18.0166L58.6969 16.4706H60.1962V24.8887H58.6969Z" fill="white"/>
<rect opacity="0.35" x="234.379" y="16.5155" width="16.867" height="8.43349" rx="2.67061" stroke="white" stroke-width="0.702791"/>
<path opacity="0.4" d="M252.301 19.5234V22.3876C252.866 22.1451 253.234 21.5807 253.234 20.9555C253.234 20.3303 252.866 19.766 252.301 19.5234" fill="white"/>
<rect x="235.434" y="17.5703" width="14.7586" height="6.32512" rx="1.75698" fill="white"/>
<path fill-rule="evenodd" clip-rule="evenodd" d="M222.973 18.3466C224.721 18.3466 226.402 18.9947 227.669 20.1567C227.764 20.2464 227.917 20.2453 228.011 20.1542L228.923 19.2662C228.97 19.22 228.997 19.1574 228.996 19.0923C228.996 19.0271 228.969 18.9648 228.92 18.9192C225.596 15.8447 220.35 15.8447 217.025 18.9192C216.977 18.9648 216.95 19.0271 216.949 19.0922C216.949 19.1574 216.975 19.22 217.023 19.2662L217.935 20.1542C218.029 20.2454 218.181 20.2466 218.277 20.1567C219.544 18.9946 221.225 18.3466 222.973 18.3466ZM222.971 21.3125C223.925 21.3125 224.844 21.6721 225.552 22.3216C225.647 22.4138 225.798 22.4118 225.891 22.3171L226.796 21.3899C226.843 21.3413 226.87 21.2753 226.869 21.2067C226.868 21.1382 226.841 21.0727 226.792 21.0251C224.639 18.9934 221.304 18.9934 219.151 21.0251C219.102 21.0727 219.075 21.1382 219.074 21.2068C219.073 21.2754 219.1 21.3413 219.148 21.3899L220.052 22.3171C220.145 22.4118 220.296 22.4138 220.392 22.3216C221.098 21.6725 222.017 21.3129 222.971 21.3125ZM224.745 23.2758C224.746 23.3499 224.72 23.4212 224.673 23.4731L223.143 25.1983C223.098 25.249 223.037 25.2775 222.973 25.2775C222.91 25.2775 222.848 25.249 222.804 25.1983L221.274 23.4731C221.226 23.4212 221.2 23.3498 221.202 23.2758C221.203 23.2017 221.232 23.1316 221.281 23.082C222.258 22.1586 223.689 22.1586 224.666 23.082C224.715 23.1316 224.743 23.2018 224.745 23.2758Z" fill="white"/>
<path fill-rule="evenodd" clip-rule="evenodd" d="M211.681 17.3466C211.681 16.9017 211.345 16.541 210.931 16.541H210.182C209.768 16.541 209.432 16.9017 209.432 17.3466V24.3281C209.432 24.773 209.768 25.1336 210.182 25.1336H210.931C211.345 25.1336 211.681 24.773 211.681 24.3281V17.3466ZM206.456 18.2595H207.206C207.62 18.2595 207.956 18.6289 207.956 19.0844V24.3087C207.956 24.7643 207.62 25.1336 207.206 25.1336H206.456C206.042 25.1336 205.707 24.7643 205.707 24.3087V19.0844C205.707 18.6289 206.042 18.2595 206.456 18.2595ZM203.412 20.1213H202.662C202.248 20.1213 201.913 20.4953 201.913 20.9567V24.2982C201.913 24.7596 202.248 25.1336 202.662 25.1336H203.412C203.826 25.1336 204.162 24.7596 204.162 24.2982V20.9567C204.162 20.4953 203.826 20.1213 203.412 20.1213ZM199.687 21.8398H198.937C198.523 21.8398 198.188 22.2085 198.188 22.6633V24.3102C198.188 24.765 198.523 25.1336 198.937 25.1336H199.687C200.101 25.1336 200.436 24.765 200.436 24.3102V22.6633C200.436 22.2085 200.101 21.8398 199.687 21.8398Z" fill="white"/>
<path d="M6.77911 53.4697C6.783 53.3336 6.81022 53.2091 6.86078 53.0963C6.91134 52.9836 6.98913 52.8747 7.09413 52.7697L12.9395 47.111C13.1067 46.9437 13.3129 46.8601 13.5579 46.8601C13.7212 46.8601 13.869 46.899 14.0012 46.9768C14.1374 47.0546 14.2443 47.1596 14.3221 47.2918C14.4038 47.424 14.4446 47.5718 14.4446 47.7352C14.4446 47.9763 14.3532 48.1882 14.1704 48.371L8.88508 53.4639L14.1704 58.5625C14.3532 58.7492 14.4446 58.9612 14.4446 59.1984C14.4446 59.3656 14.4038 59.5154 14.3221 59.6476C14.2443 59.7798 14.1374 59.8848 14.0012 59.9626C13.869 60.0443 13.7212 60.0851 13.5579 60.0851C13.3129 60.0851 13.1067 59.9996 12.9395 59.8284L7.09413 54.1697C6.98524 54.0647 6.90551 53.9558 6.85495 53.8431C6.80439 53.7264 6.77911 53.6019 6.77911 53.4697Z" fill="#F8F9F9"/>
</g>
<path d="M41.0428 60.5989C40.8994 60.3903 40.8428 60.2099 40.8733 60.0577C40.9037 59.9056 40.9841 59.7861 41.1145 59.6991C41.2145 59.6296 41.321 59.5883 41.434 59.5753C41.5514 59.5666 41.6731 59.56 41.7991 59.5557C41.9295 59.5514 42.0708 59.5296 42.2229 59.4905C42.3751 59.4514 42.5381 59.3688 42.7119 59.2427C42.9249 59.0906 43.0683 58.9015 43.1422 58.6755C43.2205 58.4451 43.2879 58.1952 43.3444 57.9257C43.4052 57.6518 43.5052 57.378 43.6443 57.1042C43.7877 56.826 44.0333 56.5652 44.381 56.3218C44.7766 56.0392 45.2221 55.8936 45.7177 55.8849C46.2132 55.8719 46.6978 55.9871 47.1716 56.2305C47.6454 56.4739 48.0497 56.8347 48.3843 57.3128C48.7582 57.8474 48.9668 58.393 49.0103 58.9493C49.0581 59.5057 48.9494 60.0382 48.6843 60.5467C48.4191 61.0597 48.004 61.5117 47.4389 61.9029C46.9521 62.242 46.411 62.4571 45.8155 62.5484C45.2243 62.644 44.6288 62.6288 44.029 62.5028C43.4291 62.3767 42.8684 62.1507 42.3468 61.8247C41.8252 61.503 41.3905 61.0944 41.0428 60.5989ZM48.6582 56.1588C48.3496 55.8501 48.0084 55.5959 47.6345 55.3959C47.2651 55.1916 46.913 55.0634 46.5783 55.0112C46.6348 54.6896 46.7456 54.3897 46.9108 54.1115C47.076 53.8289 47.302 53.5442 47.5889 53.2573C47.628 53.2182 47.6671 53.1791 47.7063 53.14C47.7454 53.1009 47.7867 53.0639 47.8301 53.0291C48.317 53.1161 48.7799 53.2769 49.2189 53.5116C49.6579 53.7463 50.0535 54.0397 50.4056 54.3918C50.7576 54.7396 51.0532 55.1351 51.2923 55.5785C51.5314 56.0175 51.6965 56.4891 51.7878 56.9933C51.7487 57.0368 51.7096 57.0781 51.6704 57.1172C51.6357 57.152 51.5987 57.1889 51.5596 57.228C51.2771 57.5149 50.9967 57.741 50.7185 57.9061C50.4403 58.067 50.1404 58.18 49.8188 58.2452C49.7622 57.9018 49.6297 57.5454 49.421 57.1759C49.2167 56.8021 48.9625 56.463 48.6582 56.1588ZM56.6778 46.1636C56.9386 45.9766 57.2016 45.881 57.4668 45.8767C57.7319 45.8723 57.9753 45.9375 58.197 46.0723C58.423 46.2027 58.6012 46.3787 58.7316 46.6004C58.8664 46.8221 58.9338 47.0677 58.9338 47.3372C58.9338 47.6067 58.8403 47.874 58.6534 48.1391C58.5969 48.2174 58.4643 48.4064 58.2557 48.7064C58.047 49.0019 57.7797 49.3779 57.4537 49.8343C57.1321 50.2864 56.7691 50.7884 56.3649 51.3405C55.9606 51.8881 55.5347 52.4554 55.0869 53.0422C54.6392 53.6246 54.1872 54.1962 53.7308 54.757C53.2787 55.3177 52.8419 55.8349 52.4202 56.3087C52.2333 55.6698 51.9508 55.0895 51.5726 54.5679C51.1988 54.0463 50.7511 53.6007 50.2295 53.2313C49.7079 52.8618 49.1363 52.5836 48.5148 52.3967C48.9842 51.9751 49.4993 51.5382 50.06 51.0862C50.6251 50.6298 51.1988 50.1777 51.7813 49.73C52.3681 49.2823 52.9353 48.8563 53.483 48.4521C54.035 48.0478 54.5371 47.6849 54.9891 47.3632C55.4455 47.0372 55.8215 46.7699 56.1171 46.5613C56.417 46.3526 56.6039 46.2201 56.6778 46.1636Z" fill="#61BBFF"/>
<path d="M75.7867 54.1636C75.7867 53.2899 75.9606 52.4771 76.3083 51.7251C76.6604 50.9688 77.1429 50.2864 77.7558 49.6778C78.373 49.0693 79.0794 48.5499 79.8748 48.1196C80.6746 47.6892 81.5265 47.3589 82.4306 47.1285C83.3348 46.8938 84.2476 46.7764 85.1691 46.7764C86.2166 46.7764 87.2055 46.9394 88.1357 47.2654C89.0659 47.5871 89.8874 48.0435 90.6002 48.6346C91.3131 49.2258 91.8717 49.93 92.2759 50.7471C92.6801 51.56 92.8823 52.4597 92.8823 53.4464C92.8823 54.1897 92.741 54.9026 92.4585 55.585C92.1803 56.2631 91.7934 56.8868 91.2979 57.4562C90.8024 58.0257 90.233 58.5212 89.5896 58.9428C88.9463 59.3644 88.2596 59.6904 87.5293 59.9208C86.8034 60.1555 86.0667 60.2729 85.319 60.2729C84.8844 60.2729 84.5018 60.2012 84.1715 60.0577C83.8411 59.9143 83.5825 59.7122 83.3956 59.4514C83.2131 59.1949 83.1218 58.8885 83.1218 58.5321C83.1218 58.18 83.2065 57.8583 83.3761 57.5671C83.5499 57.2759 83.7868 57.0259 84.0867 56.8173C84.3867 56.6043 84.7344 56.4413 85.1299 56.3283C85.5255 56.2109 85.9493 56.1522 86.4013 56.1522C87.1099 56.1522 87.7488 56.3131 88.3182 56.6347C88.8877 56.952 89.3375 57.3845 89.6679 57.9322C90.0026 58.4799 90.1699 59.0993 90.1699 59.7904C90.1699 60.2729 90.083 60.7423 89.9091 61.1987C89.7396 61.6551 89.494 62.0768 89.1724 62.4636C88.8551 62.8505 88.4791 63.1787 88.0444 63.4482C87.9748 63.4916 87.9096 63.5242 87.8488 63.546C87.7923 63.5677 87.7271 63.5786 87.6532 63.5786C87.4793 63.5786 87.3424 63.5286 87.2424 63.4286C87.1468 63.3286 87.099 63.2134 87.099 63.083C87.099 62.9526 87.1316 62.844 87.1968 62.757C87.2663 62.6744 87.3533 62.5984 87.4576 62.5288C87.9662 62.2246 88.3639 61.829 88.6508 61.3422C88.942 60.8597 89.0876 60.3533 89.0876 59.823C89.0876 59.3275 88.9724 58.8863 88.742 58.4995C88.516 58.1082 88.2052 57.8018 87.8097 57.5801C87.4185 57.3584 86.9751 57.2476 86.4796 57.2476C86.184 57.2476 85.9015 57.278 85.632 57.3389C85.3625 57.3997 85.1212 57.4845 84.9083 57.5932C84.6953 57.7018 84.5258 57.8344 84.3997 57.9909C84.278 58.143 84.2171 58.3125 84.2171 58.4995C84.2171 58.7211 84.3215 58.8907 84.5301 59.008C84.7431 59.1297 85.0061 59.1906 85.319 59.1906C85.9493 59.1906 86.5752 59.0906 87.1968 58.8907C87.8184 58.6907 88.4052 58.4125 88.9572 58.0561C89.5092 57.6997 89.9982 57.2824 90.4242 56.8042C90.8502 56.3218 91.1849 55.7958 91.4283 55.2264C91.6761 54.657 91.7999 54.0658 91.7999 53.4529C91.7999 52.6097 91.6239 51.8468 91.2718 51.1644C90.9197 50.4776 90.4372 49.8887 89.8244 49.3975C89.2115 48.9063 88.5051 48.5303 87.7054 48.2695C86.9099 48.0044 86.0667 47.8718 85.1756 47.8718C84.3628 47.8718 83.5564 47.9718 82.7566 48.1717C81.9612 48.3673 81.2092 48.652 80.5007 49.0258C79.7922 49.3953 79.1663 49.8387 78.6229 50.3559C78.0796 50.8732 77.6515 51.4535 77.3385 52.0968C77.0299 52.7401 76.8756 53.4312 76.8756 54.1702C76.8756 54.9743 77.0386 55.6785 77.3646 56.2826C77.6906 56.8825 78.1405 57.3824 78.7142 57.7822C79.2923 58.1778 79.9596 58.4755 80.7159 58.6755C81.4722 58.8711 82.2785 58.9689 83.1348 58.9689C83.2783 58.9689 83.4217 58.9645 83.5651 58.9559C83.7129 58.9515 83.8564 58.945 83.9955 58.9363L84.2563 59.9925C84.0607 60.0099 83.8651 60.023 83.6695 60.0317C83.4782 60.0404 83.2848 60.0447 83.0892 60.0447C82.0764 60.0447 81.1288 59.9165 80.2464 59.66C79.3641 59.4079 78.5882 59.0319 77.9188 58.5321C77.2494 58.0322 76.7256 57.4171 76.3475 56.6869C75.9736 55.9566 75.7867 55.1156 75.7867 54.1636Z" fill="#F8F9F9"/>
<path d="M112.135 57.8214C111.765 57.4649 111.517 57.0846 111.391 56.6804C111.265 56.2761 111.259 55.8762 111.372 55.4807C111.485 55.0851 111.711 54.7178 112.05 54.3788L112.897 53.5312L119.17 59.7057L118.316 60.5663C117.972 60.9097 117.607 61.1357 117.22 61.2444C116.833 61.3531 116.442 61.3487 116.047 61.2313C115.651 61.114 115.275 60.8814 114.919 60.5337L112.135 57.8214ZM113.582 52.8466L119.489 46.9655C119.72 46.7351 119.967 46.5852 120.232 46.5156C120.498 46.4417 120.763 46.4439 121.028 46.5222C121.293 46.596 121.541 46.746 121.771 46.972L125.722 50.858C125.953 51.0797 126.107 51.3252 126.185 51.5947C126.264 51.8599 126.266 52.125 126.192 52.3902C126.118 52.6553 125.968 52.9009 125.742 53.1269L119.854 59.0211L113.582 52.8466Z" fill="#F8F9F9"/>
<path d="M157.545 56.7586L158.667 56.0284L160.825 57.2867C161.12 57.4606 161.333 57.6258 161.464 57.7822C161.599 57.9344 161.666 58.1169 161.666 58.3299C161.666 58.5386 161.599 58.719 161.464 58.8711C161.333 59.0276 161.12 59.1949 160.825 59.3731L154.155 63.233C153.972 63.3373 153.805 63.4156 153.653 63.4677C153.505 63.5199 153.355 63.546 153.203 63.546C153.051 63.546 152.899 63.5199 152.747 63.4677C152.599 63.4156 152.434 63.3373 152.251 63.233L145.588 59.3731C145.288 59.1949 145.072 59.0276 144.942 58.8711C144.812 58.719 144.746 58.5386 144.746 58.3299C144.746 58.1169 144.812 57.9344 144.942 57.7822C145.072 57.6258 145.288 57.4606 145.588 57.2867L147.83 55.9827L149.037 56.6608L146.318 58.2126C146.296 58.2256 146.277 58.2408 146.259 58.2582C146.242 58.2756 146.233 58.2995 146.233 58.3299C146.233 58.356 146.242 58.3777 146.259 58.3951C146.277 58.4125 146.296 58.4277 146.318 58.4408L152.857 62.1833C152.923 62.2224 152.981 62.2506 153.033 62.268C153.09 62.2898 153.146 62.3006 153.203 62.3006C153.259 62.3006 153.314 62.2898 153.366 62.268C153.422 62.2506 153.483 62.2224 153.549 62.1833L160.088 58.4408C160.114 58.4277 160.134 58.4125 160.147 58.3951C160.164 58.3777 160.173 58.356 160.173 58.3299C160.173 58.2995 160.164 58.2756 160.147 58.2582C160.134 58.2408 160.114 58.2256 160.088 58.2126L157.545 56.7586ZM157.356 52.7162L158.471 51.9859L160.825 53.3486C161.12 53.5225 161.333 53.6877 161.464 53.8441C161.599 54.0006 161.666 54.1832 161.666 54.3918C161.666 54.6048 161.599 54.7896 161.464 54.946C161.333 55.0982 161.12 55.2612 160.825 55.435L154.155 59.3014C153.972 59.4057 153.805 59.484 153.653 59.5361C153.505 59.5883 153.355 59.6144 153.203 59.6144C153.051 59.6144 152.899 59.5883 152.747 59.5361C152.599 59.484 152.434 59.4057 152.251 59.3014L145.588 55.435C145.288 55.2612 145.072 55.0982 144.942 54.946C144.812 54.7896 144.746 54.6048 144.746 54.3918C144.746 54.1832 144.812 54.0006 144.942 53.8441C145.072 53.6877 145.288 53.5225 145.588 53.3486L148.072 51.9142L149.219 52.6184L146.318 54.281C146.296 54.294 146.277 54.3092 146.259 54.3266C146.242 54.344 146.233 54.3658 146.233 54.3918C146.233 54.4179 146.242 54.4396 146.259 54.457C146.277 54.4744 146.296 54.4918 146.318 54.5092L152.857 58.2517C152.923 58.2865 152.981 58.3147 153.033 58.3365C153.09 58.3538 153.146 58.3625 153.203 58.3625C153.259 58.3625 153.314 58.3538 153.366 58.3365C153.422 58.3147 153.483 58.2865 153.549 58.2517L160.088 54.5092C160.114 54.4918 160.134 54.4744 160.147 54.457C160.164 54.4396 160.173 54.4179 160.173 54.3918C160.173 54.3658 160.164 54.344 160.147 54.3266C160.134 54.3092 160.114 54.294 160.088 54.281L157.356 52.7162ZM153.203 55.4416C153.051 55.4416 152.899 55.4155 152.747 55.3633C152.599 55.3112 152.434 55.2329 152.251 55.1286L145.588 51.2622C145.288 51.0883 145.072 50.9253 144.942 50.7732C144.812 50.6167 144.746 50.432 144.746 50.219C144.746 50.0104 144.812 49.8278 144.942 49.6713C145.072 49.5148 145.288 49.3497 145.588 49.1758L152.251 45.3159C152.434 45.2073 152.599 45.129 152.747 45.0812C152.899 45.0291 153.051 45.003 153.203 45.003C153.355 45.003 153.505 45.0291 153.653 45.0812C153.805 45.129 153.972 45.2073 154.155 45.3159L160.825 49.1758C161.12 49.3497 161.333 49.5148 161.464 49.6713C161.599 49.8278 161.666 50.0104 161.666 50.219C161.666 50.432 161.599 50.6167 161.464 50.7732C161.333 50.9253 161.12 51.0883 160.825 51.2622L154.155 55.1286C153.972 55.2329 153.805 55.3112 153.653 55.3633C153.505 55.4155 153.355 55.4416 153.203 55.4416Z" fill="#F8F9F9"/>
<path d="M188.126 49.2997C188.282 49.2997 188.415 49.3562 188.523 49.4692C188.636 49.5779 188.693 49.7104 188.693 49.8669V55.4416L188.06 53.4986L190.773 57.1302C190.877 57.2737 190.923 57.4215 190.91 57.5736C190.901 57.7214 190.829 57.8431 190.694 57.9387C190.551 58.0387 190.401 58.0778 190.245 58.0561C190.092 58.03 189.958 57.9409 189.84 57.7888L187.734 55.0112C187.669 54.9286 187.621 54.8482 187.591 54.77C187.565 54.6918 187.552 54.607 187.552 54.5157V49.8669C187.552 49.7104 187.606 49.5779 187.715 49.4692C187.828 49.3562 187.965 49.2997 188.126 49.2997ZM188.452 62.6527C187.495 62.6527 186.585 62.4962 185.72 62.1833C184.859 61.8703 184.068 61.4356 183.346 60.8793C182.629 60.3229 182.008 59.6796 181.482 58.9493C181.36 58.7929 181.314 58.6299 181.345 58.4603C181.38 58.2865 181.469 58.1561 181.612 58.0691C181.76 57.9778 181.912 57.9539 182.068 57.9974C182.225 58.0365 182.358 58.1278 182.466 58.2713C182.901 58.9059 183.425 59.4601 184.038 59.9339C184.655 60.4076 185.335 60.7749 186.078 61.0357C186.826 61.3009 187.617 61.4356 188.452 61.44C189.256 61.44 190.021 61.3183 190.747 61.0749C191.477 60.8315 192.144 60.4881 192.748 60.0447C193.357 59.6013 193.883 59.0754 194.326 58.4669C194.774 57.8583 195.119 57.1911 195.363 56.4652C195.606 55.735 195.728 54.9678 195.728 54.1636C195.728 53.3551 195.606 52.588 195.363 51.8621C195.119 51.1318 194.774 50.4646 194.326 49.8604C193.883 49.2562 193.357 48.7324 192.748 48.2891C192.144 47.8457 191.477 47.5023 190.747 47.2589C190.021 47.0155 189.256 46.8938 188.452 46.8938C187.643 46.8938 186.874 47.0155 186.143 47.2589C185.418 47.5023 184.753 47.8457 184.148 48.2891C183.544 48.7281 183.018 49.2519 182.571 49.8604C182.127 50.4646 181.784 51.1296 181.54 51.8555C181.297 52.5814 181.175 53.3486 181.175 54.1571H179.962C179.962 53.2269 180.106 52.3402 180.393 51.4969C180.68 50.6493 181.084 49.8713 181.606 49.1628C182.131 48.4543 182.749 47.8392 183.457 47.3176C184.166 46.796 184.942 46.3918 185.785 46.1049C186.632 45.8136 187.521 45.668 188.452 45.668C189.382 45.668 190.268 45.8136 191.112 46.1049C191.959 46.3918 192.737 46.7982 193.446 47.3241C194.154 47.8457 194.769 48.4608 195.291 49.1693C195.817 49.8778 196.223 50.6559 196.51 51.5035C196.797 52.3467 196.941 53.2334 196.941 54.1636C196.941 55.0895 196.797 55.9762 196.51 56.8238C196.223 57.6714 195.817 58.4495 195.291 59.158C194.769 59.8665 194.154 60.4815 193.446 61.0031C192.737 61.5247 191.959 61.929 191.112 62.2159C190.268 62.5071 189.382 62.6527 188.452 62.6527ZM178.874 52.5858H182.668C182.842 52.5858 182.975 52.6227 183.066 52.6966C183.157 52.7705 183.201 52.8661 183.196 52.9835C183.196 53.1009 183.146 53.2291 183.046 53.3682L181.195 56.0088C181.073 56.1827 180.932 56.2718 180.771 56.2761C180.61 56.2761 180.469 56.187 180.347 56.0088L178.495 53.3747C178.396 53.2356 178.343 53.1074 178.339 52.99C178.335 52.8683 178.378 52.7705 178.469 52.6966C178.561 52.6227 178.695 52.5858 178.874 52.5858Z" fill="#F8F9F9"/>
<rect x="247.383" y="44.2773" width="19.6781" height="19.6781" rx="5.62233" fill="#707375"/>
<path d="M257.926 50.6016H262.845C263.233 50.6016 263.548 50.9162 263.548 51.3044V56.9267C263.548 57.3148 263.233 57.6295 262.845 57.6295H257.926" stroke="#F8F9F9" stroke-width="0.983907" stroke-linejoin="round"/>
<path d="M255.814 50.6016H251.597C251.209 50.6016 250.895 50.9162 250.895 51.3044V54.1155V56.9267C250.895 57.3148 251.209 57.6295 251.597 57.6295H255.814" stroke="#F8F9F9" stroke-width="0.983907" stroke-linejoin="round"/>
<path d="M257.926 47.791V60.4413" stroke="#F8F9F9" stroke-width="1.05419" stroke-linecap="square"/>
<circle cx="222.433" cy="53.7634" r="8.43349" fill="black" stroke="#F8F9F9" stroke-width="0.702791"/>
</g>
<defs>
<filter id="filter0_b_1194_1295" x="-14.0558" y="-14.0558" width="304.311" height="101.203" filterUnits="userSpaceOnUse" color-interpolation-filters="sRGB">
<feFlood flood-opacity="0" result="BackgroundImageFix"/>
<feGaussianBlur in="BackgroundImageFix" stdDeviation="7.02791"/>
<feComposite in2="SourceAlpha" operator="in" result="effect1_backgroundBlur_1194_1295"/>
<feBlend mode="normal" in="SourceGraphic" in2="effect1_backgroundBlur_1194_1295" result="shape"/>
</filter>
<filter id="filter1_b_1194_1295" x="-35.1395" y="-35.1395" width="346.478" height="139.691" filterUnits="userSpaceOnUse" color-interpolation-filters="sRGB">
<feFlood flood-opacity="0" result="BackgroundImageFix"/>
<feGaussianBlur in="BackgroundImageFix" stdDeviation="17.5698"/>
<feComposite in2="SourceAlpha" operator="in" result="effect1_backgroundBlur_1194_1295"/>
<feBlend mode="normal" in="SourceGraphic" in2="effect1_backgroundBlur_1194_1295" result="shape"/>
</filter>
</defs>
</svg>
