<svg width="32" height="32" viewBox="0 0 32 32" fill="none" xmlns="http://www.w3.org/2000/svg">
<g opacity="0.8">
<path d="M13.135 28.0124L7.25347 24.302C4.83366 22.7755 3.62375 22.0123 3.37565 20.758C3.12754 19.5039 3.94766 18.2967 5.5879 15.8823L11.4694 7.22487C13.5342 4.18563 14.5666 2.66602 15.9987 2.66602C17.4308 2.66602 18.4632 4.18563 20.528 7.22487L26.4095 15.8823C28.0498 18.2967 28.8699 19.5039 28.6218 20.758C28.3736 22.0123 27.1638 22.7755 24.7439 24.302L18.8624 28.0124C17.4672 28.8925 16.7695 29.3327 15.9987 29.3327C15.2279 29.3327 14.5302 28.8925 13.135 28.0124Z" stroke="white" stroke-linecap="round" stroke-linejoin="round"/>
<path d="M16 2.66602L18.6667 18.666M18.6667 18.666L28 20.758M18.6667 18.666L16 29.3327M18.6667 18.666L4 20.758" stroke="white" stroke-linecap="round" stroke-linejoin="round"/>
</g>
</svg>
