<svg width="32" height="32" viewBox="0 0 32 32" fill="none" xmlns="http://www.w3.org/2000/svg">
<g opacity="0.8">
<path d="M8.0013 21.3327C6.76134 21.3327 6.14135 21.3327 5.63269 21.1964C4.25233 20.8265 3.17413 19.7483 2.80426 18.368C2.66797 17.8593 2.66797 17.2393 2.66797 15.9993C2.66797 14.7593 2.66797 14.1393 2.80426 13.6307C3.17413 12.2504 4.25233 11.1722 5.63269 10.8023C6.14135 10.666 6.76134 10.666 8.0013 10.666M16.0013 21.3327H24.0013C25.2413 21.3327 25.8613 21.3327 26.37 21.1964C27.7502 20.8265 28.8285 19.7483 29.1984 18.368C29.3346 17.8593 29.3346 17.2393 29.3346 15.9993C29.3346 14.7593 29.3346 14.1393 29.1984 13.6307C28.8285 12.2504 27.7502 11.1722 26.37 10.8023C25.8613 10.666 25.2413 10.666 24.0013 10.666H16.0013" stroke="white" stroke-linecap="round"/>
<path d="M9.33203 4H11.9987M11.9987 4H14.6654M11.9987 4V28M11.9987 28H9.33203M11.9987 28H14.6654" stroke="white" stroke-linecap="round" stroke-linejoin="round"/>
</g>
</svg>
