<svg width="32" height="32" viewBox="0 0 32 32" fill="none" xmlns="http://www.w3.org/2000/svg">
<rect width="32" height="32" fill="white"/>
<path d="M17.7873 11.6131C17.8644 11.4962 17.9374 11.3764 18.0063 11.2539C18.0752 11.1314 18.1398 11.0062 18.2 10.8785C18.2601 10.7507 18.316 10.6205 18.3672 10.4879C18.4184 10.3553 18.4649 10.2203 18.5067 10.0831C18.5485 9.94595 18.5854 9.80677 18.6173 9.66542C18.6492 9.52406 18.6761 9.38084 18.6977 9.23584C18.7193 9.09085 18.7359 8.94388 18.7469 8.79535C18.7579 8.64683 18.7635 8.49674 18.7635 8.34509C18.7635 7.93402 18.7217 7.53261 18.6422 7.14482C18.5627 6.75702 18.4455 6.38295 18.2944 6.02644C18.1434 5.66994 17.9586 5.3312 17.7441 5.01409C17.5296 4.69697 17.2852 4.40148 17.0152 4.13176C16.7451 3.86204 16.4492 3.61789 16.1316 3.40357C15.814 3.18925 15.4746 3.00455 15.1174 2.85363C14.7601 2.70271 14.3852 2.58547 13.9965 2.50596C13.6078 2.42644 13.2052 2.38477 12.7929 2.38477C12.3806 2.38477 11.978 2.42655 11.5893 2.50606C11.2006 2.58557 10.8255 2.70282 10.4684 2.85384C10.1113 3.00486 9.77182 3.18966 9.45419 3.40419C9.13656 3.61872 8.84075 3.86308 8.57061 4.13311C8.30048 4.40314 8.05622 4.69905 7.84169 5.01669C7.62717 5.33432 7.44236 5.67368 7.29134 6.03091C7.14032 6.38815 7.02308 6.76305 6.94357 7.15178C6.86405 7.54051 6.82248 7.94317 6.82248 8.35549L6.82123 9.87641L6.81998 11.3973L6.81874 12.9183L6.81749 14.4392L6.81624 15.9601L6.81499 17.481L6.81375 19.002L6.8125 20.5229V20.5332C6.8125 21.16 6.87621 21.7721 6.99761 22.3633C7.11901 22.9545 7.29789 23.5248 7.52832 24.0682C7.75875 24.6116 8.04063 25.128 8.36783 25.6113C8.69503 26.0946 9.06754 26.5449 9.47924 26.9559C9.89094 27.367 10.3418 27.7389 10.8258 28.0655C11.3097 28.392 11.8266 28.6734 12.3705 28.9033C12.9144 29.1332 13.4851 29.3118 14.0765 29.4329C14.6679 29.554 15.2802 29.6176 15.9071 29.6176C16.5339 29.6176 17.1484 29.554 17.7407 29.4329C18.3329 29.3118 18.904 29.1332 19.4481 28.9032C19.9923 28.6732 20.5093 28.3917 20.9931 28.065C21.4769 27.7382 21.9275 27.3661 22.3389 26.9547C22.7503 26.5433 23.1224 26.0927 23.4491 25.6089C23.7759 25.1251 24.0574 24.6081 24.2874 24.064C24.5174 23.5198 24.696 22.9487 24.8171 22.3565C24.9382 21.7642 25.0018 21.1511 25.0018 20.5229C25.0018 19.9744 24.9534 19.4375 24.8608 18.916C24.7682 18.3946 24.6312 17.8887 24.4541 17.4024C24.277 16.916 24.0595 16.4491 23.8058 16.0057C23.552 15.5623 23.2622 15.1425 22.9401 14.7501C22.6179 14.3576 22.2636 13.9927 21.8812 13.6591C21.4988 13.3256 21.0882 13.0235 20.6534 12.7567C20.2186 12.49 19.7599 12.2588 19.2808 12.0668C18.8018 11.8748 18.3029 11.7224 17.7877 11.6131H17.7873ZM21.1803 25.7657C21.005 25.941 20.8225 26.1064 20.6334 26.2616C20.4442 26.4168 20.2486 26.562 20.047 26.6967C19.8455 26.8314 19.6379 26.9557 19.4253 27.0693C19.2126 27.1829 18.9947 27.2858 18.7721 27.3778C18.5496 27.4698 18.3226 27.5508 18.0917 27.6205C17.8607 27.6903 17.6259 27.7489 17.388 27.7959C17.1501 27.8428 16.9088 27.8785 16.6651 27.9023C16.4214 27.9261 16.1751 27.9381 15.927 27.9381C15.6789 27.9381 15.4327 27.9261 15.189 27.9023C14.9452 27.8785 14.7041 27.8429 14.4661 27.7959C14.2281 27.7488 13.9933 27.6903 13.7624 27.6205C13.5316 27.5508 13.3045 27.4697 13.0819 27.3778C12.8594 27.2859 12.6416 27.1829 12.4288 27.0693C12.216 26.9557 12.0086 26.8314 11.807 26.6967C11.6055 26.562 11.4098 26.4169 11.2207 26.2616C11.0317 26.1063 10.8491 25.941 10.6738 25.7657C10.4985 25.5905 10.3331 25.408 10.1779 25.2188C10.0227 25.0296 9.87753 24.834 9.74283 24.6325C9.60812 24.431 9.48381 24.2234 9.37021 24.0107C9.2566 23.7981 9.15371 23.5801 9.06172 23.3576C8.96973 23.1351 8.88877 22.9081 8.81902 22.6771C8.74928 22.4462 8.69066 22.2114 8.64368 21.9735C8.5967 21.7355 8.56105 21.4943 8.53725 21.2506C8.51345 21.0068 8.50139 20.7606 8.50139 20.5125C8.50139 20.2644 8.51345 20.0182 8.53725 19.7744C8.56105 19.5307 8.5966 19.2896 8.64368 19.0515C8.69076 18.8135 8.74928 18.5787 8.81902 18.3479C8.88877 18.117 8.96984 17.8899 9.06172 17.6674C9.1536 17.4449 9.2566 17.227 9.37021 17.0143C9.48381 16.8015 9.60812 16.594 9.74283 16.3925C9.87753 16.191 10.0226 15.9952 10.1779 15.8062C10.3332 15.6171 10.4986 15.4346 10.6738 15.2593C10.849 15.0839 11.0316 14.9186 11.2207 14.7634C11.4099 14.6082 11.6055 14.463 11.807 14.3283C12.0086 14.1936 12.2161 14.0693 12.4288 13.9557C12.6415 13.8421 12.8594 13.7392 13.0819 13.6472C13.3045 13.5552 13.5315 13.4742 13.7624 13.4045C13.9934 13.3347 14.2282 13.2761 14.4661 13.2291C14.704 13.1822 14.9452 13.1465 15.189 13.1227C15.4327 13.0989 15.6789 13.0869 15.927 13.0869C16.1751 13.0869 16.4214 13.0989 16.6651 13.1227C16.9088 13.1465 17.15 13.1821 17.388 13.2291C17.626 13.2762 17.8608 13.3347 18.0917 13.4045C18.3225 13.4742 18.5496 13.5553 18.7721 13.6472C18.9947 13.7391 19.2125 13.8421 19.4253 13.9557C19.638 14.0693 19.8455 14.1936 20.047 14.3283C20.2486 14.463 20.4443 14.6081 20.6334 14.7634C20.8224 14.9187 21.0049 15.084 21.1803 15.2593C21.3556 15.4345 21.521 15.617 21.6762 15.8062C21.8313 15.9954 21.9765 16.191 22.1112 16.3925C22.246 16.594 22.3703 16.8016 22.4839 17.0143C22.5975 17.2269 22.7004 17.4449 22.7924 17.6674C22.8843 17.8899 22.9653 18.1169 23.035 18.3479C23.1048 18.5788 23.1634 18.8136 23.2104 19.0515C23.2574 19.2895 23.293 19.5307 23.3168 19.7744C23.3406 20.0182 23.3527 20.2644 23.3527 20.5125C23.3527 20.7606 23.3406 21.0068 23.3168 21.2506C23.293 21.4943 23.2575 21.7354 23.2104 21.9735C23.1633 22.2115 23.1048 22.4463 23.035 22.6771C22.9653 22.908 22.8842 23.1351 22.7924 23.3576C22.7005 23.5801 22.5975 23.798 22.4839 24.0107C22.3703 24.2235 22.246 24.431 22.1112 24.6325C21.9765 24.834 21.8314 25.0298 21.6762 25.2188C21.5209 25.4079 21.3555 25.5904 21.1803 25.7657Z" fill="black"/>
</svg>
