<svg width="142" height="157" viewBox="0 0 142 157" fill="none" xmlns="http://www.w3.org/2000/svg">
<g opacity="0.4">
<path d="M65.2757 1.67423C66.6755 2.87387 65.8756 5.47309 63.8759 7.67301C61.2886 10.5193 55.4774 11.0728 54.6775 8.67315C53.8777 6.27352 55.4771 3.47419 58.4767 2.07414C61.4764 0.674091 64.2021 0.754211 65.2757 1.67423ZM65.2757 1.67423C65.8756 1.87414 67.8753 3.43378 71.0748 8.07307C75.0742 13.8722 80.4733 22.071 82.873 28.47" stroke="white" stroke-linecap="round"/>
<path d="M54.4805 7.67383C54.4138 8.14042 54.4805 9.43356 55.2804 10.8733C56.0802 12.3131 59.8796 17.6056 61.6794 20.0719" stroke="white" stroke-linecap="round"/>
<path d="M81.8744 28.4691C66.0768 19.5372 29.8824 7.03242 11.4852 28.4691C-11.5112 55.265 7.08592 97.0587 31.0822 122.855C55.0785 148.651 102.071 170.647 130.667 143.652C159.262 116.656 122.268 64.6637 116.869 57.6648C114.669 55.0652 112.87 52.6656 106.87 52.2656C100.871 51.8657 92.0727 56.8649 91.2728 57.2649C90.473 57.6648 90.273 59.8645 95.8721 59.0646C101.48 62.7726 112.114 71.6284 109.783 77.3875" stroke="white" stroke-linecap="round"/>
<path d="M110.268 35.869C109.268 33.6694 103.069 22.871 89.4714 26.4705C75.8735 30.0699 67.6747 34.6689 64.2752 41.4679C60.8758 48.2669 68.2746 52.2662 70.2743 52.2662C71.8741 52.2662 74.4068 51.333 75.4731 50.8665" stroke="white" stroke-linecap="round"/>
<path d="M117.868 59.0651C120.135 56.9987 124.267 51.7062 122.668 47.0669C120.668 41.2678 115.869 31.8692 97.2714 37.2684C78.6743 42.6676 75.8747 48.8663 75.4748 51.066C75.0749 53.2657 75.0749 61.6644 84.0735 61.8643C91.2724 62.0243 94.6053 60.0645 95.6719 59.0648" stroke="white" stroke-linecap="round"/>
<path d="M96.6736 59.865C94.9405 63.6644 92.1543 73.6229 94.8739 83.0614C96.9329 90.2075 99.5054 96.4732 102.547 100.659M125.869 123.655C128.668 108.058 122.67 94.6597 117.67 85.4611C112.671 76.2625 110.471 77.2623 109.672 77.4623C108.872 77.6623 109.331 81.6217 110.209 83.9338C111.926 88.4513 114.67 92.7993 116.137 97.0594M125.869 123.655C123.511 136.79 100.473 160.849 49.4808 120.056C-1.51138 79.262 14.2862 35.2688 30.8836 32.2693M125.869 123.655C115.07 166.649 44.4815 143.052 21.685 101.059C-1.11145 59.0653 12.2865 43.4677 17.6857 38.0685C22.005 33.7492 28.284 32.4026 30.8836 32.2693M30.8836 32.2693C47.4811 29.2697 60.4791 34.8689 66.4782 37.6684M116.137 97.0594C116.519 98.1658 116.788 99.1931 116.87 100.059C117.27 104.258 115.071 107.458 109.072 105.858C106.706 105.227 104.527 103.384 102.547 100.659M116.137 97.0594C114.982 94.0599 111.591 88.0608 107.272 88.0608C101.872 88.0608 100.673 91.0604 100.473 93.0601C100.273 95.0597 101.422 98.8592 102.547 100.659" stroke="white" stroke-linecap="round"/>
</g>
</svg>
