<svg width="135" height="157" viewBox="0 0 135 157" fill="none" xmlns="http://www.w3.org/2000/svg">
<g opacity="0.4">
<path fill-rule="evenodd" clip-rule="evenodd" d="M89.5362 38.5564C59.6883 27.9326 34.8493 41.2825 22.8392 56.7956L22.7957 56.8518L22.751 56.907C19.7415 60.6306 17.2958 67.1934 16.2311 75.8177C15.1864 84.2795 15.5662 93.9964 17.5237 103.36C21.5595 122.664 31.4821 137.572 46.0335 140.526C63.2264 144.017 79.4679 141.408 92.2122 135.306C105.062 129.153 113.857 119.727 117.065 109.989C120.516 99.511 120.924 83.912 116.532 69.6055C112.17 55.3952 103.443 43.5065 89.5362 38.5564ZM12.1447 48.4295C27.0814 29.1798 57.7648 12.8357 94.0892 25.7647C113.285 32.5971 124.337 48.7619 129.512 65.6207C134.658 82.3834 134.365 100.869 129.961 114.237C125.314 128.344 113.35 140.239 98.0758 147.552C82.6966 154.916 63.4505 157.917 43.3322 153.833C20.5725 149.213 8.6134 127.09 4.23315 106.138C1.98261 95.373 1.52082 84.155 2.7555 74.1541C3.96655 64.3446 6.90739 54.9433 12.1447 48.4295Z" stroke="white" stroke-linecap="round"/>
<path d="M15.5076 68.3506C3.44459 68.3506 -0.482719 58.8122 1.48102 44.7855C3.20917 32.4419 13.5433 26.8314 24.2036 28.2341C34.864 29.6368 37.3888 41.1387 37.1082 50.9574C36.8277 60.7761 27.5706 68.3506 15.5076 68.3506Z" fill="#303030" stroke="white" stroke-linecap="round"/>
<path d="M64.3215 1.30249C55.9055 2.9857 46.6478 12.8044 49.4532 28.2338C51.978 38.8941 67.9684 47.8712 76.1039 44.5048C84.2395 41.1384 90.9723 30.1976 89.2891 17.5735C87.6059 4.94944 72.7375 -0.380713 64.3215 1.30249Z" fill="#303030" stroke="white" stroke-linecap="round"/>
<path d="M103.594 29.3562C92.0916 35.528 92.0916 48.152 96.0191 56.2875C101.349 66.6675 110.887 68.6308 122.67 63.3007C134.452 57.9705 136.696 47.591 131.927 36.6501C127.158 25.7093 115.095 23.1844 103.594 29.3562Z" fill="#303030" stroke="white" stroke-linecap="round"/>
</g>
</svg>
